# File created by Blade
# Date/Time:  Wed Apr 08 17:35:25 2015
# Frame Rate: 120.000 fps
#------------------------------------------------------
:FULLY-SPECIFIED
:DEGREES
2590
root 10.014546 37.603546 3.866533 169.156600 -58.047996 -144.179222
Spine -2.469937 -0.866503 1.277983
Head 46.260258 4.935584 21.939118
LeftShoulder -7.169716 18.677747 18.125965
LeftArm 21.701188 16.625991 -70.206872
LeftForeArm 15.853127 -0.000000 30.407760
LeftHand -14.884036 -0.000000 -6.605672
LeftHandThumb1 -26.253704 0.000000 33.147579
RightShoulder -38.427112 -48.604510 22.641006
RightArm 48.552961 -9.271641 59.027141
RightForeArm 6.743440 -0.000000 14.333662
RightHand 0.793836 -0.000000 12.620842
RightHandThumb1 -24.326973 -0.000000 -32.862282
LeftUpLeg -27.156762 31.408313 -0.012530
LeftLeg 7.931103 -0.000000 -0.000000
LeftFoot -9.553358 10.022053 -3.490182
LeftToeBase 10.219531 -0.000000 -0.000000
RightUpLeg -55.626642 3.000397 -0.373198
RightLeg 64.026305 -0.000000 -0.000000
RightFoot -1.743441 -0.419158 28.756883
RightToeBase -2.169424 -0.000000 0.000000
2591
root 10.000898 37.595093 3.809109 168.911248 -58.430947 -144.083629
Spine -2.457269 -0.850000 1.120230
Head 46.244315 4.797631 21.899669
LeftShoulder -7.204472 18.697071 18.133062
LeftArm 21.673895 16.542499 -70.061414
LeftForeArm 15.841133 -0.000000 30.408575
LeftHand -14.921251 -0.000000 -6.614960
LeftHandThumb1 -26.253704 0.000000 33.147579
RightShoulder -38.321509 -48.598397 22.474040
RightArm 48.537358 -9.135701 59.286262
RightForeArm 6.429825 0.000000 14.271853
RightHand 0.844147 -0.000000 12.694179
RightHandThumb1 -24.326973 -0.000000 -32.862282
LeftUpLeg -26.979590 31.141763 0.097537
LeftLeg 7.972155 -0.000000 -0.000000
LeftFoot -9.507447 9.935297 -3.391452
LeftToeBase 10.150757 -0.000000 -0.000000
RightUpLeg -54.716792 3.691022 -1.062381
RightLeg 62.063851 -0.000000 -0.000000
RightFoot -1.430739 -0.361452 28.710061
RightToeBase -2.074992 -0.000000 0.000000
2592
root 9.985420 37.586780 3.754527 168.755417 -58.757171 -144.047274
Spine -2.493680 -0.750728 0.928173
Head 46.211782 4.567206 21.876068
LeftShoulder -7.154426 18.640156 18.261427
LeftArm 21.557478 16.121832 -70.247621
LeftForeArm 16.150014 -0.000000 30.186800
LeftHand -14.629769 -0.000000 -6.969970
LeftHandThumb1 -26.253704 0.000000 33.147579
RightShoulder -38.315139 -48.588732 22.418222
RightArm 48.557696 -9.124207 59.289425
RightForeArm 6.396300 -0.000000 14.287623
RightHand 0.897509 -0.000000 12.718357
RightHandThumb1 -24.326973 -0.000000 -32.862282
LeftUpLeg -26.826815 30.928280 0.166224
LeftLeg 7.984917 -0.000000 -0.000000
LeftFoot -9.487021 9.853707 -3.389924
LeftToeBase 9.895682 -0.000000 -0.000000
RightUpLeg -53.842687 4.468573 -1.780147
RightLeg 60.083785 -0.000000 -0.000000
RightFoot -1.203047 -0.384699 28.623946
RightToeBase -1.970372 -0.000000 0.000000
2593
root 9.953974 37.573021 3.693040 168.444976 -59.022746 -144.154303
Spine -2.212370 -0.596546 0.665359
Head 46.171887 4.387956 21.862177
LeftShoulder -7.191694 18.659248 18.293971
LeftArm 21.560497 15.834568 -70.221947
LeftForeArm 16.290750 -0.000000 30.131883
LeftHand -14.675611 -0.000000 -7.096559
LeftHandThumb1 -26.253704 0.000000 33.147579
RightShoulder -38.196719 -48.543601 22.296994
RightArm 48.545210 -9.085722 59.315177
RightForeArm 6.339230 -0.000000 14.294997
RightHand 0.899204 -0.000000 12.657522
RightHandThumb1 -24.326973 -0.000000 -32.862282
LeftUpLeg -26.309525 30.936066 0.294160
LeftLeg 7.942876 -0.000000 -0.000000
LeftFoot -9.539744 9.621267 -3.466011
LeftToeBase 9.786647 -0.000000 -0.000000
RightUpLeg -52.700875 5.327430 -2.527279
RightLeg 58.177324 -0.000000 -0.000000
RightFoot -1.005421 -0.336753 28.369610
RightToeBase -1.966119 -0.000000 0.000000
2594
root 9.932369 37.562999 3.634185 168.141685 -59.369521 -144.107278
Spine -2.081083 -0.516939 0.487552
Head 46.137129 4.191491 21.877002
LeftShoulder -7.172691 18.648179 18.327521
LeftArm 21.489539 15.624937 -70.152979
LeftForeArm 16.288237 0.000000 30.121999
LeftHand -14.614474 0.000000 -7.148851
LeftHandThumb1 -26.253704 0.000000 33.147579
RightShoulder -38.139577 -48.510330 22.194796
RightArm 48.561473 -9.013021 59.375770
RightForeArm 6.378648 -0.000000 14.282824
RightHand 0.855921 -0.000000 12.618296
RightHandThumb1 -24.326973 -0.000000 -32.862282
LeftUpLeg -26.017230 30.841338 0.387722
LeftLeg 7.954142 -0.000000 -0.000000
LeftFoot -9.538874 9.388352 -3.453547
LeftToeBase 9.639036 -0.000000 -0.000000
RightUpLeg -51.698011 6.093467 -3.194827
RightLeg 56.259662 -0.000000 -0.000000
RightFoot -0.864162 -0.328728 28.131511
RightToeBase -1.854067 -0.000000 0.000000
2595
root 9.914578 37.554491 3.575095 167.857273 -59.743404 -143.996025
Spine -2.031972 -0.459777 0.331426
Head 46.103087 3.974577 21.892906
LeftShoulder -7.171059 18.658460 18.368556
LeftArm 21.465180 15.440845 -70.069292
LeftForeArm 16.331001 -0.000000 30.098643
LeftHand -14.632506 -0.000000 -7.196323
LeftHandThumb1 -26.253704 0.000000 33.147579
RightShoulder -38.123893 -48.470995 22.143580
RightArm 48.554697 -8.894402 59.429654
RightForeArm 6.123373 -0.000000 14.331293
RightHand 0.773863 -0.000000 12.701988
RightHandThumb1 -24.326973 -0.000000 -32.862282
LeftUpLeg -25.851802 30.715442 0.451906
LeftLeg 8.007744 -0.000000 -0.000000
LeftFoot -9.520857 9.178322 -3.403850
LeftToeBase 9.499139 -0.000000 -0.000000
RightUpLeg -50.778986 6.777897 -3.792506
RightLeg 54.354046 -0.000000 -0.000000
RightFoot -0.688639 -0.309921 27.759177
RightToeBase -1.686035 -0.000000 0.000000
2596
root 9.898137 37.546727 3.519238 167.666444 -60.134423 -143.910386
Spine -2.072432 -0.399215 0.161119
Head 46.084424 3.728414 21.880011
LeftShoulder -7.142162 18.623371 18.434095
LeftArm 21.405241 15.288727 -70.001108
LeftForeArm 16.327717 -0.000000 30.031242
LeftHand -14.602293 -0.000000 -7.256652
LeftHandThumb1 -26.253704 0.000000 33.147579
RightShoulder -38.144474 -48.448637 22.105430
RightArm 48.587170 -8.875657 59.368483
RightForeArm 6.243094 -0.000000 14.341572
RightHand 0.800169 -0.000000 12.680617
RightHandThumb1 -24.326973 -0.000000 -32.862282
LeftUpLeg -25.758676 30.533538 0.469646
LeftLeg 8.052721 -0.000000 -0.000000
LeftFoot -9.467095 9.049240 -3.323950
LeftToeBase 9.336824 -0.000000 -0.000000
RightUpLeg -49.921781 7.419249 -4.399231
RightLeg 52.427745 -0.000000 -0.000000
RightFoot -0.547007 -0.301913 27.453211
RightToeBase -1.482759 -0.000000 0.000000
